<?xml version="1.0" encoding="UTF-8"?>
<svg version="1.1" xmlns="http://www.w3.org/2000/svg" width="192" height="192">
<path d="M0 0 C1.36239052 -0.00639748 1.36239052 -0.00639748 2.75230408 -0.01292419 C4.24376198 -0.01224442 4.24376198 -0.01224442 5.76535034 -0.0115509 C6.81447098 -0.01490952 7.86359161 -0.01826813 8.94450378 -0.02172852 C12.42369766 -0.03125094 15.90284345 -0.03318257 19.38204956 -0.03425598 C21.80000834 -0.03746869 24.21796692 -0.04083277 26.63592529 -0.04434204 C31.7117864 -0.05033726 36.78763047 -0.05218164 41.86349487 -0.05158997 C48.35653701 -0.05148855 54.84946928 -0.06511728 61.34248543 -0.08236217 C66.34060158 -0.09350353 71.3386914 -0.09550848 76.3368187 -0.09498024 C78.72971855 -0.09615804 81.12261913 -0.10056855 83.51550674 -0.10831261 C86.87100047 -0.11815132 90.22625877 -0.11521856 93.58175659 -0.10920715 C94.56391647 -0.11482666 95.54607635 -0.12044617 96.55799866 -0.12623596 C104.23018402 -0.09145255 111.19333578 1.16234895 118.43673706 3.69621277 C119.51568237 4.06939636 119.51568237 4.06939636 120.61642456 4.45011902 C121.25837769 4.67570496 121.90033081 4.90129089 122.56173706 5.13371277 C123.55173706 5.46371277 124.54173706 5.79371277 125.56173706 6.13371277 C125.56173706 6.79371277 125.56173706 7.45371277 125.56173706 8.13371277 C127.21047511 9.84053758 127.21047511 9.84053758 129.31173706 11.57121277 C130.00783081 12.16804871 130.70392456 12.76488464 131.42111206 13.37980652 C133.42847295 15.02452375 135.47244018 16.59497385 137.56173706 18.13371277 C138.55173706 17.63871277 138.55173706 17.63871277 139.56173706 17.13371277 C139.96392456 18.21652527 139.96392456 18.21652527 140.37423706 19.32121277 C141.4782432 22.12467252 141.4782432 22.12467252 142.99923706 24.50871277 C146.80867595 30.9085701 148.00991889 35.81340956 147.56173706 43.13371277 C148.22173706 43.13371277 148.88173706 43.13371277 149.56173706 43.13371277 C149.58857693 46.1129387 149.60849743 49.09192572 149.62423706 52.07121277 C149.63261597 52.92134949 149.64099487 53.77148621 149.64962769 54.64738464 C149.65285034 55.45627136 149.656073 56.26515808 149.65939331 57.09855652 C149.66463013 57.84742126 149.66986694 58.59628601 149.67526245 59.36784363 C149.56173706 61.13371277 149.56173706 61.13371277 148.56173706 62.13371277 C148.20761362 63.46167567 147.87652152 64.79587883 147.56173706 66.13371277 C147.23173706 67.12371277 146.90173706 68.11371277 146.56173706 69.13371277 C146.47923706 70.02058777 146.39673706 70.90746277 146.31173706 71.82121277 C145.32219027 76.19171108 143.27826231 79.58784336 140.56173706 83.13371277 C139.57173706 83.62871277 139.57173706 83.62871277 138.56173706 84.13371277 C138.27298706 84.77308777 137.98423706 85.41246277 137.68673706 86.07121277 C136.30753701 88.59974619 135.08005772 88.87455244 132.56173706 90.13371277 C132.29361206 90.77308777 132.02548706 91.41246277 131.74923706 92.07121277 C130.23823917 94.69557753 128.52421832 95.22710229 125.76486206 96.28215027 C123.08422305 97.31828379 120.48779106 98.50124557 117.87423706 99.69621277 C116.96286987 100.11000183 116.05150269 100.52379089 115.11251831 100.95011902 C112.20476224 102.29935346 109.34845884 103.72843185 106.49923706 105.19621277 C101.31121204 107.70654746 100.26251876 106.97131048 93.56173706 106.13371277 C93.56173706 119.00371277 93.56173706 131.87371277 93.56173706 145.13371277 C89.53042567 147.14936847 87.9150094 147.38107026 83.56173706 147.32121277 C82.01486206 147.3115448 82.01486206 147.3115448 80.43673706 147.30168152 C77.98105024 147.15821069 75.90665951 146.83831687 73.56173706 146.13371277 C72.90173706 147.45371277 72.24173706 148.77371277 71.56173706 150.13371277 C70.45958862 149.98933777 69.35744019 149.84496277 68.22189331 149.69621277 C57.60893506 148.3745991 47.25079079 147.89016471 36.56173706 148.13371277 C36.56173706 147.47371277 36.56173706 146.81371277 36.56173706 146.13371277 C27.99126674 145.30191669 19.48011467 145.02544351 10.87423706 145.00871277 C9.92540649 145.00420105 8.97657593 144.99968933 7.99899292 144.99504089 C1.47188317 145.00858379 -4.94896226 145.44116312 -11.43826294 146.13371277 C-11.43826294 146.79371277 -11.43826294 147.45371277 -11.43826294 148.13371277 C-16.71826294 148.13371277 -21.99826294 148.13371277 -27.43826294 148.13371277 C-27.43826294 148.79371277 -27.43826294 149.45371277 -27.43826294 150.13371277 C-29.08826294 150.13371277 -30.73826294 150.13371277 -32.43826294 150.13371277 C-32.76826294 149.47371277 -33.09826294 148.81371277 -33.43826294 148.13371277 C-34.09826294 148.46371277 -34.75826294 148.79371277 -35.43826294 149.13371277 C-35.48495417 132.36602294 -35.52023764 115.59835415 -35.54188728 98.83061504 C-35.55220613 91.04531368 -35.56627806 83.26005268 -35.58914185 75.47477722 C-35.60905713 68.69026104 -35.62197495 61.90577407 -35.62643993 55.12122947 C-35.62905048 51.52784185 -35.63519895 47.93453785 -35.64972305 44.34117699 C-35.66579376 40.3327753 -35.66624383 36.3245196 -35.66531372 32.31608582 C-35.67250427 31.12062637 -35.67969482 29.92516693 -35.68710327 28.69348145 C-35.68435394 27.60393158 -35.68160461 26.51438171 -35.67877197 25.39181519 C-35.68061556 24.44329021 -35.68245914 23.49476522 -35.6843586 22.51749706 C-35.43826294 20.13371277 -35.43826294 20.13371277 -33.43826294 17.13371277 C-30.56471188 16.17586242 -28.78574252 16.01692567 -25.80545044 16.03605652 C-24.91728638 16.03927917 -24.02912231 16.04250183 -23.11404419 16.04582214 C-22.18978638 16.05420105 -21.26552856 16.06257996 -20.31326294 16.07121277 C-19.38127075 16.07572449 -18.44927856 16.08023621 -17.48904419 16.08488464 C-15.13872588 16.09685861 -12.78852693 16.11410209 -10.43826294 16.13371277 C-10.10826294 16.13371277 -9.77826294 16.13371277 -9.43826294 16.13371277 C-9.46146606 15.55363464 -9.48466919 14.97355652 -9.50857544 14.37590027 C-9.6192473 9.58538982 -9.5395811 5.55754047 -7.43826294 1.13371277 C-4.62382274 0.19556604 -2.91168264 0.00618171 0 0 Z M-7.43826294 3.13371277 C-7.43826294 8.41371277 -7.43826294 13.69371277 -7.43826294 19.13371277 C-7.10826294 19.13371277 -6.77826294 19.13371277 -6.43826294 19.13371277 C-6.43826294 13.85371277 -6.43826294 8.57371277 -6.43826294 3.13371277 C-6.76826294 3.13371277 -7.09826294 3.13371277 -7.43826294 3.13371277 Z M-29.43826294 17.13371277 C-29.43826294 17.46371277 -29.43826294 17.79371277 -29.43826294 18.13371277 C-23.82826294 18.13371277 -18.21826294 18.13371277 -12.43826294 18.13371277 C-12.43826294 17.80371277 -12.43826294 17.47371277 -12.43826294 17.13371277 C-18.04826294 17.13371277 -23.65826294 17.13371277 -29.43826294 17.13371277 Z M143.56173706 30.13371277 C144.56173706 32.13371277 144.56173706 32.13371277 144.56173706 32.13371277 Z M144.56173706 32.13371277 C145.56173706 34.13371277 145.56173706 34.13371277 145.56173706 34.13371277 Z M145.56173706 35.13371277 C146.56173706 38.13371277 146.56173706 38.13371277 146.56173706 38.13371277 Z M144.56173706 70.13371277 C145.56173706 72.13371277 145.56173706 72.13371277 145.56173706 72.13371277 Z M143.56173706 72.13371277 C144.56173706 74.13371277 144.56173706 74.13371277 144.56173706 74.13371277 Z M94.56173706 104.13371277 C94.56173706 104.46371277 94.56173706 104.79371277 94.56173706 105.13371277 C97.53173706 105.13371277 100.50173706 105.13371277 103.56173706 105.13371277 C103.56173706 104.80371277 103.56173706 104.47371277 103.56173706 104.13371277 C100.59173706 104.13371277 97.62173706 104.13371277 94.56173706 104.13371277 Z M91.56173706 106.13371277 C91.56173706 116.69371277 91.56173706 127.25371277 91.56173706 138.13371277 C91.89173706 138.13371277 92.22173706 138.13371277 92.56173706 138.13371277 C92.56173706 127.57371277 92.56173706 117.01371277 92.56173706 106.13371277 C92.23173706 106.13371277 91.90173706 106.13371277 91.56173706 106.13371277 Z M-20.43826294 146.13371277 C-20.43826294 146.46371277 -20.43826294 146.79371277 -20.43826294 147.13371277 C-18.45826294 147.13371277 -16.47826294 147.13371277 -14.43826294 147.13371277 C-14.43826294 146.80371277 -14.43826294 146.47371277 -14.43826294 146.13371277 C-16.41826294 146.13371277 -18.39826294 146.13371277 -20.43826294 146.13371277 Z " fill="#3EA13A" transform="translate(42.438262939453125,22.866287231445313)"/>
<path d="M0 0 C0.33 0 0.66 0 1 0 C1 28.38 1 56.76 1 86 C0.34 86 -0.32 86 -1 86 C-1 97.55 -1 109.1 -1 121 C6.425 120.01 6.425 120.01 14 119 C21.53102376 118.7184664 28.27034044 119.01724246 35.64453125 120.44921875 C38.22089507 120.87211433 40.66659809 121.15137644 43.26171875 121.33203125 C57.66565827 122.3875189 67.50576123 127.44755902 79.59765625 135.421875 C80.39042969 135.94265625 81.18320313 136.4634375 82 137 C82.84820312 137.55816406 83.69640625 138.11632812 84.5703125 138.69140625 C87.8022207 140.43206421 90.38935922 140.21239063 94 140 C94.33 140.99 94.66 141.98 95 143 C94 144 94 144 91.41796875 144.1328125 C90.35191406 144.13023437 89.28585938 144.12765625 88.1875 144.125 C86.60001953 144.12886719 86.60001953 144.12886719 84.98046875 144.1328125 C82.46310983 144.02063661 80.39576745 143.7309121 78 143 C77.34 144.32 76.68 145.64 76 147 C74.89785156 146.855625 73.79570313 146.71125 72.66015625 146.5625 C62.047198 145.24088633 51.68905373 144.75645194 41 145 C41 144.34 41 143.68 41 143 C32.42952968 142.16820392 23.91837761 141.89173075 15.3125 141.875 C14.36366943 141.87048828 13.41483887 141.86597656 12.43725586 141.86132812 C5.91014611 141.87487102 -0.51069932 142.30745035 -7 143 C-7 143.66 -7 144.32 -7 145 C-12.28 145 -17.56 145 -23 145 C-23 145.66 -23 146.32 -23 147 C-24.65 147 -26.3 147 -28 147 C-28.33 146.34 -28.66 145.68 -29 145 C-29.66 145.33 -30.32 145.66 -31 146 C-31 103.43 -31 60.86 -31 17 C-29.35 16.67 -27.7 16.34 -26 16 C-26 16.66 -26 17.32 -26 18 C-25.03320312 17.91621094 -24.06640625 17.83242188 -23.0703125 17.74609375 C-15.51573539 17.15519118 -8.54387824 16.95546301 -1 18 C-0.67 12.06 -0.34 6.12 0 0 Z M-16 143 C-16 143.33 -16 143.66 -16 144 C-14.02 144 -12.04 144 -10 144 C-10 143.67 -10 143.34 -10 143 C-11.98 143 -13.96 143 -16 143 Z " fill="#308B2E" transform="translate(38,26)"/>
<path d="M0 0 C0.05607422 1.0209375 0.05607422 1.0209375 0.11328125 2.0625 C0.70971009 10.85690175 2.26432067 19.37595655 4 28 C4.36230195 29.82285254 4.72426584 31.6457723 5.0859375 33.46875 C6.04948034 38.31409112 7.02255798 43.15744462 8 48 C3.96430636 46.51608516 1.00550593 44.6513689 -2.3515625 42.0234375 C-4.10140537 40.73626846 -4.10140537 40.73626846 -7 41 C-7.32871094 41.65484375 -7.65742188 42.3096875 -7.99609375 42.984375 C-14.05530953 54.61018738 -22.02131642 64.50214084 -31 74 C-31.75796875 74.82242188 -32.5159375 75.64484375 -33.296875 76.4921875 C-47.98320187 91.89843236 -70.16278884 106.2803099 -91.80859375 108.3671875 C-94.57205892 108.37369743 -97.25347786 108.29080823 -100 108 C-97.30711689 104.78623074 -93.8030752 103.26518694 -90.125 101.4375 C-82.3520602 97.42714917 -75.702232 92.59102644 -69 87 C-68.11570312 86.26910156 -67.23140625 85.53820312 -66.3203125 84.78515625 C-51.06376321 71.64361145 -34.19613916 50.59734123 -31 30 C-32.12148437 30.03480469 -32.12148437 30.03480469 -33.265625 30.0703125 C-34.25046875 30.08835937 -35.2353125 30.10640625 -36.25 30.125 C-37.22453125 30.14820312 -38.1990625 30.17140625 -39.203125 30.1953125 C-42.060778 29.99575573 -43.52494311 29.33949708 -46 28 C-45.41323486 27.64921387 -44.82646973 27.29842773 -44.22192383 26.93701172 C-32.10111756 19.67229394 -20.13880214 12.25598467 -8.4777832 4.26904297 C-7.24161255 3.42817139 -7.24161255 3.42817139 -5.98046875 2.5703125 C-5.25754639 2.07289551 -4.53462402 1.57547852 -3.78979492 1.06298828 C-2 0 -2 0 0 0 Z " fill="#A3DA3F" transform="translate(145,37)"/>
<path d="M0 0 C3.63 0.33 7.26 0.66 11 1 C11 34.33 11 67.66 11 102 C18.425 101.01 18.425 101.01 26 100 C33.53102376 99.7184664 40.27034044 100.01724246 47.64453125 101.44921875 C50.22089507 101.87211433 52.66659809 102.15137644 55.26171875 102.33203125 C69.66565827 103.3875189 79.50576123 108.44755902 91.59765625 116.421875 C92.39042969 116.94265625 93.18320313 117.4634375 94 118 C94.84820312 118.55816406 95.69640625 119.11632812 96.5703125 119.69140625 C99.8022207 121.43206421 102.38935922 121.21239063 106 121 C106.33 121.99 106.66 122.98 107 124 C106 125 106 125 103.41796875 125.1328125 C102.35191406 125.13023437 101.28585938 125.12765625 100.1875 125.125 C98.60001953 125.12886719 98.60001953 125.12886719 96.98046875 125.1328125 C94.46310983 125.02063661 92.39576745 124.7309121 90 124 C89.01 125.98 89.01 125.98 88 128 C86.35 127.67 84.7 127.34 83 127 C83 126.34 83 125.68 83 125 C82.236875 124.79375 81.47375 124.5875 80.6875 124.375 C77.55378275 123.20649526 75.31181199 121.97964925 72.5 120.25 C53.39204948 109.76644877 29.04754111 107.72182406 8 113 C7.12601563 113.35320312 6.25203125 113.70640625 5.3515625 114.0703125 C3 115 3 115 0 115 C0 77.05 0 39.1 0 0 Z " fill="#010D00" transform="translate(26,45)"/>
<path d="M0 0 C-14.24996156 29.23583663 -38.62486743 47.89579192 -67 62 C-67.33 62 -67.66 62 -68 62 C-68 50.78 -68 39.56 -68 28 C-65.298125 27.34 -62.59625 26.68 -59.8125 26 C-42.75680567 21.58922405 -14.96956261 0 0 0 Z " fill="#92D338" transform="translate(105,84)"/>
<path d="M0 0 C1.36239052 -0.00639748 1.36239052 -0.00639748 2.75230408 -0.01292419 C4.24376198 -0.01224442 4.24376198 -0.01224442 5.76535034 -0.0115509 C6.81447098 -0.01490952 7.86359161 -0.01826813 8.94450378 -0.02172852 C12.42369766 -0.03125094 15.90284345 -0.03318257 19.38204956 -0.03425598 C21.80000834 -0.03746869 24.21796692 -0.04083277 26.63592529 -0.04434204 C31.7117864 -0.05033726 36.78763047 -0.05218164 41.86349487 -0.05158997 C48.35653701 -0.05148855 54.84946928 -0.06511728 61.34248543 -0.08236217 C66.34060158 -0.09350353 71.3386914 -0.09550848 76.3368187 -0.09498024 C78.72971855 -0.09615804 81.12261913 -0.10056855 83.51550674 -0.10831261 C86.87100047 -0.11815132 90.22625877 -0.11521856 93.58175659 -0.10920715 C94.56391647 -0.11482666 95.54607635 -0.12044617 96.55799866 -0.12623596 C104.23018402 -0.09145255 111.19333578 1.16234895 118.43673706 3.69621277 C119.51568237 4.06939636 119.51568237 4.06939636 120.61642456 4.45011902 C121.25837769 4.67570496 121.90033081 4.90129089 122.56173706 5.13371277 C123.55173706 5.46371277 124.54173706 5.79371277 125.56173706 6.13371277 C125.56173706 6.79371277 125.56173706 7.45371277 125.56173706 8.13371277 C127.21047511 9.84053758 127.21047511 9.84053758 129.31173706 11.57121277 C130.00783081 12.16804871 130.70392456 12.76488464 131.42111206 13.37980652 C133.42847295 15.02452375 135.47244018 16.59497385 137.56173706 18.13371277 C138.55173706 17.63871277 138.55173706 17.63871277 139.56173706 17.13371277 C139.96392456 18.21652527 139.96392456 18.21652527 140.37423706 19.32121277 C141.4782432 22.12467252 141.4782432 22.12467252 142.99923706 24.50871277 C146.80867595 30.9085701 148.00991889 35.81340956 147.56173706 43.13371277 C148.22173706 43.13371277 148.88173706 43.13371277 149.56173706 43.13371277 C149.56173706 49.07371277 149.56173706 55.01371277 149.56173706 61.13371277 C148.24173706 61.46371277 146.92173706 61.79371277 145.56173706 62.13371277 C145.50227905 61.22045227 145.50227905 61.22045227 145.44161987 60.28874207 C144.19702813 42.11667118 142.09082808 27.88024034 128.24923706 14.82121277 C121.16205565 8.95473317 114.9054648 5.99563362 105.69113159 5.02677917 C104.91175798 4.9433407 104.13238438 4.85990223 103.32939339 4.77393532 C92.88482263 3.75627771 82.41351861 3.77650236 71.92892456 3.71965027 C69.7126192 3.7008911 67.49632063 3.68131437 65.2800293 3.66096497 C59.50991866 3.61013856 53.73978498 3.57025146 47.96957397 3.53282166 C42.05622901 3.49246764 36.14297573 3.44152032 30.22970581 3.39152527 C18.67378109 3.29535384 7.117804 3.21076537 -4.43826294 3.13371277 C-4.42666138 4.26550964 -4.41505981 5.39730652 -4.40310669 6.56340027 C-4.3937284 8.04516946 -4.38462824 9.52694042 -4.37576294 11.00871277 C-4.36738403 11.75507996 -4.35900513 12.50144714 -4.35037231 13.27043152 C-4.32498169 18.90715027 -4.32498169 18.90715027 -5.43826294 21.13371277 C-13.68826294 21.13371277 -21.93826294 21.13371277 -30.43826294 21.13371277 C-30.43826294 20.14371277 -30.43826294 19.15371277 -30.43826294 18.13371277 C-31.42826294 17.80371277 -32.41826294 17.47371277 -33.43826294 17.13371277 C-30.56471188 16.17586242 -28.78574252 16.01692567 -25.80545044 16.03605652 C-24.91728638 16.03927917 -24.02912231 16.04250183 -23.11404419 16.04582214 C-22.18978638 16.05420105 -21.26552856 16.06257996 -20.31326294 16.07121277 C-19.38127075 16.07572449 -18.44927856 16.08023621 -17.48904419 16.08488464 C-15.13872588 16.09685861 -12.78852693 16.11410209 -10.43826294 16.13371277 C-10.10826294 16.13371277 -9.77826294 16.13371277 -9.43826294 16.13371277 C-9.46146606 15.55363464 -9.48466919 14.97355652 -9.50857544 14.37590027 C-9.6192473 9.58538982 -9.5395811 5.55754047 -7.43826294 1.13371277 C-4.62382274 0.19556604 -2.91168264 0.00618171 0 0 Z M-7.43826294 3.13371277 C-7.43826294 8.41371277 -7.43826294 13.69371277 -7.43826294 19.13371277 C-7.10826294 19.13371277 -6.77826294 19.13371277 -6.43826294 19.13371277 C-6.43826294 13.85371277 -6.43826294 8.57371277 -6.43826294 3.13371277 C-6.76826294 3.13371277 -7.09826294 3.13371277 -7.43826294 3.13371277 Z M-29.43826294 17.13371277 C-29.43826294 17.46371277 -29.43826294 17.79371277 -29.43826294 18.13371277 C-23.82826294 18.13371277 -18.21826294 18.13371277 -12.43826294 18.13371277 C-12.43826294 17.80371277 -12.43826294 17.47371277 -12.43826294 17.13371277 C-18.04826294 17.13371277 -23.65826294 17.13371277 -29.43826294 17.13371277 Z M143.56173706 30.13371277 C144.56173706 32.13371277 144.56173706 32.13371277 144.56173706 32.13371277 Z M144.56173706 32.13371277 C145.56173706 34.13371277 145.56173706 34.13371277 145.56173706 34.13371277 Z M145.56173706 35.13371277 C146.56173706 38.13371277 146.56173706 38.13371277 146.56173706 38.13371277 Z " fill="#84BC7F" transform="translate(42.438262939453125,22.866287231445313)"/>
<path d="M0 0 C0.33 0 0.66 0 1 0 C1.33 2.64 1.66 5.28 2 8 C2.33 8 2.66 8 3 8 C3.16818126 14.63842252 3.32807995 21.27700721 3.48217773 27.91577148 C3.53559999 30.1749322 3.59092952 32.43404863 3.64819336 34.69311523 C3.73009772 37.93724012 3.80517779 41.18146155 3.87890625 44.42578125 C3.91945885 45.94465691 3.91945885 45.94465691 3.96083069 47.49421692 C3.98092697 48.43496567 4.00102325 49.37571442 4.02172852 50.3449707 C4.04171402 51.17325882 4.06169952 52.00154694 4.08229065 52.85493469 C4 55 4 55 3 58 C3.62527588 57.90912109 4.25055176 57.81824219 4.89477539 57.72460938 C76.87331295 47.58220863 76.87331295 47.58220863 100 63 C99.44650879 62.96970703 98.89301758 62.93941406 98.32275391 62.90820312 C95.75697731 62.76936818 93.19099848 62.63466942 90.625 62.5 C89.75488281 62.45230469 88.88476562 62.40460938 87.98828125 62.35546875 C81.98637239 62.04425866 76.00955557 61.94176474 70 62 C70 61.34 70 60.68 70 60 C61.42952968 59.16820392 52.91837761 58.89173075 44.3125 58.875 C42.88925415 58.86823242 42.88925415 58.86823242 41.43725586 58.86132812 C34.91014611 58.87487102 28.48930068 59.30745035 22 60 C22 60.66 22 61.32 22 62 C16.72 62 11.44 62 6 62 C6 62.66 6 63.32 6 64 C4.35 64 2.7 64 1 64 C-0.36239076 61.27521848 -0.11969958 59.13159145 -0.11352539 56.08154297 C-0.11344986 54.84040741 -0.11337433 53.59927185 -0.11329651 52.32052612 C-0.1081895 50.96107951 -0.1029735 49.60163331 -0.09765625 48.2421875 C-0.09579142 46.85499116 -0.09436782 45.46779416 -0.09336853 44.08059692 C-0.08954848 40.42765488 -0.07972255 36.77475252 -0.06866455 33.12182617 C-0.05843944 29.39502499 -0.05386855 25.66821741 -0.04882812 21.94140625 C-0.03809983 14.62758606 -0.02102954 7.31379859 0 0 Z M13 60 C13 60.33 13 60.66 13 61 C14.98 61 16.96 61 19 61 C19 60.67 19 60.34 19 60 C17.02 60 15.04 60 13 60 Z " fill="#2A6627" transform="translate(9,109)"/>
<path d="M0 0 C0.495 0.99 0.495 0.99 1 2 C-0.20886695 4.54530278 -1.47157439 6.9389179 -2.875 9.375 C-3.2884668 10.09671387 -3.70193359 10.81842773 -4.12792969 11.56201172 C-14.14297702 28.72143032 -27.17889771 43.38538004 -44 54 C-44.64839844 54.4125 -45.29679687 54.825 -45.96484375 55.25 C-48.99502788 56.36668974 -51.78474907 56.26362394 -55 56.25 C-56.216875 56.25515625 -57.43375 56.2603125 -58.6875 56.265625 C-61.75288791 56.01981559 -63.43662952 55.6149234 -66 54 C-64.824375 53.505 -63.64875 53.01 -62.4375 52.5 C-46.29431961 45.2800579 -31.55479774 36.2269193 -19.34375 23.23828125 C-18 22 -18 22 -16 22 C-15.62101562 21.13955078 -15.62101562 21.13955078 -15.234375 20.26171875 C-13.84946823 17.72418387 -12.22845244 15.91748138 -10.25 13.8125 C-6.32014716 9.49539888 -3.08663175 4.94562587 0 0 Z " fill="#87CD3D" transform="translate(134,91)"/>
<path d="M0 0 C3.63 0.33 7.26 0.66 11 1 C11 34 11 67 11 101 C10.67 101 10.34 101 10 101 C10 69.32 10 37.64 10 5 C7.36 5 4.72 5 2 5 C2 40.64 2 76.28 2 113 C3.65 113 5.3 113 7 113 C4.35261084 114.4606285 3.10551666 115 0 115 C0 77.05 0 39.1 0 0 Z " fill="#0E3609" transform="translate(26,45)"/>
<path d="M0 0 C0.33 0 0.66 0 1 0 C1 28.38 1 56.76 1 86 C0.34 86 -0.32 86 -1 86 C-1 64.22 -1 42.44 -1 20 C-4.3 20 -7.6 20 -11 20 C-11.33 57.62 -11.66 95.24 -12 134 C-9.36 133.01 -6.72 132.02 -4 131 C7.69025348 127.96799251 20.03430626 128.80064844 32 129 C32 129.33 32 129.66 32 130 C30.81148437 130.01417969 29.62296875 130.02835938 28.3984375 130.04296875 C17.57462024 130.31000553 7.57116609 131.66549713 -2.92626953 134.36010742 C-4.24860596 134.69619019 -4.24860596 134.69619019 -5.59765625 135.0390625 C-6.37633057 135.24740723 -7.15500488 135.45575195 -7.95727539 135.67041016 C-10 136 -10 136 -13 135 C-13 96.06 -13 57.12 -13 17 C-9.04 17.33 -5.08 17.66 -1 18 C-0.505 9.09 -0.505 9.09 0 0 Z " fill="#2F702C" transform="translate(38,26)"/>
<path d="M0 0 C0.66 0.33 1.32 0.66 2 1 C3.37109494 1.09903736 4.74681088 1.13771432 6.12145996 1.14476013 C7.41651459 1.15510788 7.41651459 1.15510788 8.73773193 1.16566467 C9.68730774 1.16827805 10.63688354 1.17089142 11.61523438 1.17358398 C12.61383484 1.180271 13.6124353 1.18695801 14.64129639 1.19384766 C16.81624621 1.20792375 18.99121103 1.21980959 21.16618347 1.22979546 C24.6136513 1.24618838 28.06100932 1.26942925 31.50842285 1.29469299 C41.31285121 1.36549037 51.11732622 1.42540792 60.921875 1.47680664 C66.91538306 1.50870851 72.90876802 1.55002098 78.9021759 1.59700203 C81.18257924 1.61296532 83.46301097 1.6253129 85.74345398 1.63390923 C88.94563175 1.64614689 92.14752387 1.67033478 95.34960938 1.69702148 C96.28299133 1.69761063 97.21637329 1.69819977 98.17803955 1.69880676 C104.31961876 1.76617773 110.02314954 2.59288057 116 4 C112.7993445 4.87120504 110.49738353 4.97308065 107.19042969 4.58227539 C97.1383369 3.63694197 87.04112311 3.76247765 76.953125 3.68359375 C74.72824753 3.66298885 72.50337366 3.64199154 70.27850342 3.62062073 C64.45897361 3.56576482 58.63941064 3.51619662 52.81982422 3.46777344 C46.86683242 3.41728985 40.91388801 3.36174482 34.9609375 3.30664062 C23.30733227 3.19950614 11.65368567 3.09796432 0 3 C0.01160156 4.13179687 0.02320312 5.26359375 0.03515625 6.4296875 C0.04453454 7.91145669 0.0536347 9.39322765 0.0625 10.875 C0.07087891 11.62136719 0.07925781 12.36773437 0.08789062 13.13671875 C0.11328125 18.7734375 0.11328125 18.7734375 -1 21 C-9.25 21 -17.5 21 -26 21 C-26 20.01 -26 19.02 -26 18 C-26.99 17.67 -27.98 17.34 -29 17 C-26.12644895 16.04214965 -24.34747958 15.8832129 -21.3671875 15.90234375 C-20.47902344 15.90556641 -19.59085938 15.90878906 -18.67578125 15.91210938 C-17.75152344 15.92048828 -16.82726562 15.92886719 -15.875 15.9375 C-14.94300781 15.94201172 -14.01101562 15.94652344 -13.05078125 15.95117188 C-10.70046294 15.96314584 -8.35026399 15.98038932 -6 16 C-5.67 16 -5.34 16 -5 16 C-5.02320312 15.41992188 -5.04640625 14.83984375 -5.0703125 14.2421875 C-5.18098436 9.45167705 -5.10131816 5.42382771 -3 1 C-2.01 0.67 -1.02 0.34 0 0 Z M-3 3 C-3 8.28 -3 13.56 -3 19 C-2.67 19 -2.34 19 -2 19 C-2 13.72 -2 8.44 -2 3 C-2.33 3 -2.66 3 -3 3 Z M-25 17 C-25 17.33 -25 17.66 -25 18 C-19.39 18 -13.78 18 -8 18 C-8 17.67 -8 17.34 -8 17 C-13.61 17 -19.22 17 -25 17 Z " fill="#64A460" transform="translate(38,23)"/>
<path d="M0 0 C0.99 0.33 1.98 0.66 3 1 C-8.22808379 26.38523293 -32.45822731 45.48039241 -57 57 C-55.02 57.33 -53.04 57.66 -51 58 C-51 58.33 -51 58.66 -51 59 C-55.95 59.33 -60.9 59.66 -66 60 C-63.56981933 57.56981933 -62.37947717 56.51070011 -59.48046875 55.08984375 C-58.7949292 54.74518066 -58.10938965 54.40051758 -57.40307617 54.04541016 C-56.67193604 53.6797998 -55.9407959 53.31418945 -55.1875 52.9375 C-32.67138509 41.30469279 -15.25065271 24.54281592 -2 3 C-1.34 2.01 -0.68 1.02 0 0 Z " fill="#56A329" transform="translate(103,87)"/>
<path d="M0 0 C0.66 0 1.32 0 2 0 C0.7325913 3.11091227 -0.98949245 5.17031365 -3.4140625 7.46875 C-4.58784188 8.60205423 -5.72316953 9.77548392 -6.8359375 10.96875 C-17.20698571 21.91810945 -29.6141324 29.3147504 -43 36 C-43.84433594 36.46792969 -44.68867187 36.93585938 -45.55859375 37.41796875 C-51.50739387 40.52491783 -56.47425223 40.12218466 -63 39 C-59.97728958 37.3617371 -56.85581123 36.1959529 -53.61987305 35.04736328 C-38.11640323 29.50975273 -24.93045349 21.48754339 -12.703125 10.453125 C-11 9 -11 9 -8.375 7.4375 C-6.10217542 6.06184302 -4.64381909 4.71001134 -2.8125 2.8125 C-1.4203125 1.4203125 -1.4203125 1.4203125 0 0 Z " fill="#42921D" transform="translate(120,106)"/>
<path d="M0 0 C0.05607422 1.0209375 0.05607422 1.0209375 0.11328125 2.0625 C0.70971009 10.85690175 2.26432067 19.37595655 4 28 C4.36230195 29.82285254 4.72426584 31.6457723 5.0859375 33.46875 C6.04948034 38.31409112 7.02255798 43.15744462 8 48 C4.09330571 46.56171454 1.80286291 45.11429212 -1 42 C0.65 42.66 2.3 43.32 4 44 C3.82609741 43.12432373 3.82609741 43.12432373 3.64868164 42.23095703 C3.11513586 39.52989817 2.58879183 36.82748125 2.0625 34.125 C1.78889648 32.74828125 1.78889648 32.74828125 1.50976562 31.34375 C0.46785607 25.96370794 -0.32522046 20.64187428 -0.79272461 15.1809082 C-0.98746508 13.13188983 -1.30233293 11.09530252 -1.625 9.0625 C-2 6 -2 6 -1 3 C-1.598125 3.495 -2.19625 3.99 -2.8125 4.5 C-5 6 -5 6 -8 6 C-8 6.66 -8 7.32 -8 8 C-10.40230811 9.84468326 -12.80257766 11.56267613 -15.3125 13.25 C-16.40703491 13.9915332 -16.40703491 13.9915332 -17.52368164 14.74804688 C-25.98009048 20.41357092 -34.19914237 25.10794365 -44 28 C-40.69339987 24.28112657 -36.854517 22.02454852 -32.5625 19.625 C-24.37397129 14.94920778 -16.56059403 9.79657293 -8.78149414 4.47119141 C-7.92676514 3.89030762 -7.07203613 3.30942383 -6.19140625 2.7109375 C-5.43029541 2.18806152 -4.66918457 1.66518555 -3.88500977 1.12646484 C-2 0 -2 0 0 0 Z " fill="#A1DF57" transform="translate(145,37)"/>
<path d="M0 0 C0.99 0.495 0.99 0.495 2 1 C2.7059617 18.70912439 3.1067471 36.40143831 3.125 54.125 C3.12874634 55.38534058 3.12874634 55.38534058 3.13256836 56.67114258 C3.15742957 66.83340955 2.90509246 76.87079892 2 87 C1.67 87 1.34 87 1 87 C-0.06943241 69.11503902 -0.12352538 51.26570969 -0.06866455 33.35784912 C-0.0582409 29.58232196 -0.05382713 25.80678755 -0.04882812 22.03125 C-0.03825875 14.68748098 -0.02130401 7.34374658 0 0 Z " fill="#357432" transform="translate(9,44)"/>
<path d="M0 0 C0.66 0.33 1.32 0.66 2 1 C0.96566873 1.94558687 -0.07794146 2.88102584 -1.125 3.8125 C-1.70507812 4.33457031 -2.28515625 4.85664062 -2.8828125 5.39453125 C-5.44711238 7.33904647 -8.09714021 8.61029555 -11 10 C-12.15113281 10.60457031 -13.30226562 11.20914063 -14.48828125 11.83203125 C-27.95126811 18.85090902 -44.55390023 27 -60 27 C-59.505 25.515 -59.505 25.515 -59 24 C-56.78540039 23.05200195 -56.78540039 23.05200195 -53.84765625 22.23828125 C-52.23080933 21.77325195 -52.23080933 21.77325195 -50.58129883 21.29882812 C-49.42009521 20.97333984 -48.2588916 20.64785156 -47.0625 20.3125 C-32.00522519 15.88395018 -18.22137114 10.1174373 -4.59106445 2.34960938 C-3.09112413 1.50962603 -1.54853455 0.74661487 0 0 Z " fill="#A5E056" transform="translate(98,88)"/>
<path d="M0 0 C0.99 0.33 1.98 0.66 3 1 C-13.1655454 18.23140553 -35.44728477 35.01850745 -59.80859375 37.3671875 C-62.57205892 37.37369743 -65.25347786 37.29080823 -68 37 C-65.6975881 34.39954125 -63.50103323 33.15260817 -60.3125 31.8125 C-59.50425781 31.46832031 -58.69601563 31.12414062 -57.86328125 30.76953125 C-57.24839844 30.51558594 -56.63351563 30.26164062 -56 30 C-56 30.99 -56 31.98 -56 33 C-50.4051532 32.50268028 -45.67592459 30.88957376 -40.453125 28.83984375 C-38 28 -38 28 -35 28 C-35 27.34 -35 26.68 -35 26 C-34.21496094 25.62488281 -33.42992187 25.24976563 -32.62109375 24.86328125 C-25.49950768 21.41697234 -25.49950768 21.41697234 -18.875 17.125 C-16 15 -16 15 -14 15 C-14 14.34 -14 13.68 -14 13 C-13.360625 12.896875 -12.72125 12.79375 -12.0625 12.6875 C-11.381875 12.460625 -10.70125 12.23375 -10 12 C-9.67 11.01 -9.34 10.02 -9 9 C-8.34 9 -7.68 9 -7 9 C-7 8.34 -7 7.68 -7 7 C-6.34 7 -5.68 7 -5 7 C-4.731875 6.401875 -4.46375 5.80375 -4.1875 5.1875 C-3.01506533 3.02775192 -1.80630718 1.64209744 0 0 Z " fill="#84CC42" transform="translate(113,108)"/>
<path d="M0 0 C0 3.92379055 -1.60406942 5.00508678 -4 8 C-4 8.99 -4 9.98 -4 11 C-5.3921875 11.5878125 -5.3921875 11.5878125 -6.8125 12.1875 C-13.99579051 15.26605307 -21.11437 18.4831603 -28.0625 22.0625 C-31.59853854 23.77348639 -34.13410927 24.11739912 -38 23.8125 C-38.86625 23.75707031 -39.7325 23.70164063 -40.625 23.64453125 C-43.62638361 22.83001103 -44.41389616 21.60350598 -46 19 C-44.11611543 17.11611543 -41.34294031 17.65142072 -38.81591797 17.45629883 C-22.79344481 16.16809808 -11.34776408 11.54995141 0 0 Z M-40 21 C-40 21.33 -40 21.66 -40 22 C-37.03 22 -34.06 22 -31 22 C-31 21.67 -31 21.34 -31 21 C-33.97 21 -36.94 21 -40 21 Z " fill="#34752E" transform="translate(177,106)"/>
<path d="M0 0 C14.62462238 -0.51314464 28.24852604 7.03617806 39.875 15.4375 C43.81276345 18.18156067 46.26760658 18.60413533 51 18 C51.495 19.485 51.495 19.485 52 21 C50.20095222 22.79904778 47.54936549 22.17296543 45.125 22.1875 C43.52011719 22.20876953 43.52011719 22.20876953 41.8828125 22.23046875 C39 22 39 22 36 20 C36.99 20 37.98 20 39 20 C36.315369 17.12122533 33.81295385 15.13599939 30.33203125 13.30859375 C28.99108398 12.60379883 28.99108398 12.60379883 27.62304688 11.88476562 C26.69556641 11.40716797 25.76808594 10.92957031 24.8125 10.4375 C23.90435547 9.95603516 22.99621094 9.47457031 22.06054688 8.97851562 C14.99973584 5.3040635 7.90289265 2.2746601 0 1 C0 0.67 0 0.34 0 0 Z " fill="#1A5015" transform="translate(81,148)"/>
<path d="M0 0 C0.99 0 1.98 0 3 0 C-0.99303307 14.48986999 -7.76662117 26.17056973 -17 38 C-17.7425 38.99 -18.485 39.98 -19.25 41 C-19.8275 41.66 -20.405 42.32 -21 43 C-21.66 43 -22.32 43 -23 43 C-22.40654611 40.05479947 -21.55889131 38.08226665 -19.77734375 35.671875 C-19.32488281 35.04466553 -18.87242188 34.41745605 -18.40625 33.77124023 C-17.9215625 33.10423096 -17.436875 32.43722168 -16.9375 31.75 C-9.88958151 21.79573523 -4.73477651 11.21622362 0 0 Z " fill="#ACE259" transform="translate(115,68)"/>
<path d="M0 0 C1.16094721 3.48284162 1.44848557 6.87177035 1.8125 10.5 C2.60479167 17.92833952 3.95827652 25.13439168 5.67895508 32.40234375 C6.82050274 37.3938486 7.17445064 41.87696611 7 47 C5.54140914 44.29287056 4.61623521 41.84914859 4 38.83984375 C3.8359668 38.0516626 3.67193359 37.26348145 3.50292969 36.45141602 C3.25397949 35.20702759 3.25397949 35.20702759 3 33.9375 C2.82629883 33.082771 2.65259766 32.22804199 2.47363281 31.34741211 C2.13139557 29.6550072 1.7917996 27.96206564 1.45507812 26.26855469 C1.08388748 24.41817727 0.69320909 22.57171788 0.296875 20.7265625 C-1.0607722 14.11288115 -1.21172874 7.74003156 -1 1 C-3.70878938 2.74929484 -6.41694746 4.49956472 -9.125 6.25 C-9.88554687 6.74113281 -10.64609375 7.23226562 -11.4296875 7.73828125 C-12.55117187 8.46337891 -12.55117187 8.46337891 -13.6953125 9.203125 C-14.42911133 9.67685547 -15.16291016 10.15058594 -15.91894531 10.63867188 C-17.7753553 11.853048 -19.60343292 13.10042504 -21.4296875 14.359375 C-24 16 -24 16 -26 16 C-26 15.34 -26 14.68 -26 14 C-21.61538462 11 -21.61538462 11 -19 11 C-19 10.34 -19 9.68 -19 9 C-18.25234375 8.60167969 -17.5046875 8.20335937 -16.734375 7.79296875 C-15.74953125 7.26316406 -14.7646875 6.73335937 -13.75 6.1875 C-12.77546875 5.66542969 -11.8009375 5.14335938 -10.796875 4.60546875 C-8.02704492 3.11243689 -8.02704492 3.11243689 -5.890625 1.30078125 C-4 0 -4 0 0 0 Z " fill="#57AA37" transform="translate(146,36)"/>
<path d="M0 0 C1.32 0.33 2.64 0.66 4 1 C4 13.87 4 26.74 4 40 C2.68 40 1.36 40 0 40 C0 26.8 0 13.6 0 0 Z " fill="#589553" transform="translate(132,128)"/>
<path d="M0 0 C0.66 0.66 1.32 1.32 2 2 C3.7325 2.4640625 3.7325 2.4640625 5.5 2.9375 C9 4 9 4 11 7 C10.45214844 6.82984375 9.90429688 6.6596875 9.33984375 6.484375 C7.60793882 5.95494715 5.8716614 5.43974893 4.1328125 4.93359375 C2.01046335 4.30112312 -0.09929233 3.62505799 -2.1953125 2.91015625 C-16.40966008 -1.55766441 -31.34671697 -0.85046593 -46 1 C-35.99312139 -7.85223877 -11.84977277 -3.68509339 0 0 Z " fill="#0A3409" transform="translate(84,156)"/>
<path d="M0 0 C2.133758 0.02434829 4.26752184 0.04818934 6.40129089 0.07154846 C11.97594945 0.13392145 17.55050253 0.20311674 23.12506104 0.27380371 C28.8300706 0.34491385 34.53515402 0.40947403 40.24023438 0.47460938 C51.40372705 0.60301724 62.56711917 0.73864307 73.73046875 0.87890625 C73.73046875 1.20890625 73.73046875 1.53890625 73.73046875 1.87890625 C37.76046875 1.87890625 1.79046875 1.87890625 -35.26953125 1.87890625 C-35.26953125 1.54890625 -35.26953125 1.21890625 -35.26953125 0.87890625 C-23.51014165 -0.39360043 -11.8078168 -0.15773358 0 0 Z " fill="#77BD6E" transform="translate(73.26953125,20.12109375)"/>
<path d="M0 0 C0.66 0.33 1.32 0.66 2 1 C0.94982442 4.11686725 0.09100177 4.94859154 -2.828125 6.59765625 C-3.95734375 7.08105469 -5.0865625 7.56445312 -6.25 8.0625 C-11.23162546 10.22052187 -11.23162546 10.22052187 -16.0546875 12.703125 C-19.41064236 14.18081335 -21.27613794 14.17027418 -24.875 13.6875 C-25.84179688 13.56761719 -26.80859375 13.44773438 -27.8046875 13.32421875 C-28.52914062 13.21722656 -29.25359375 13.11023438 -30 13 C-26.28008298 10.98742951 -22.34119359 9.62212994 -18.375 8.1875 C-12.62579151 6.08624986 -7.1863589 3.75921925 -1.8203125 0.78515625 C-1.21960938 0.52605469 -0.61890625 0.26695312 0 0 Z " fill="#31770D" transform="translate(87,132)"/>
<path d="M0 0 C0.99 0 1.98 0 3 0 C-0.08952413 9.26857239 -17.64109209 15.75695823 -26 20 C-24.02 20.33 -22.04 20.66 -20 21 C-20 21.33 -20 21.66 -20 22 C-24.95 22.33 -29.9 22.66 -35 23 C-32.56981933 20.56981933 -31.37947717 19.51070011 -28.48046875 18.08984375 C-27.79404297 17.744375 -27.10761719 17.39890625 -26.40039062 17.04296875 C-25.67013672 16.67816406 -24.93988281 16.31335938 -24.1875 15.9375 C-15.82318388 11.65105769 -6.71306621 6.71306621 0 0 Z " fill="#306C05" transform="translate(72,124)"/>
<path d="M0 0 C-9.9 5.94 -9.9 5.94 -20 12 C-16.99221479 13.00259507 -14.46179353 13.30314642 -11.3125 13.5625 C-10.31863281 13.64628906 -9.32476562 13.73007813 -8.30078125 13.81640625 C-7.54152344 13.87699219 -6.78226563 13.93757813 -6 14 C-6.30803777 21.85496312 -9.53090484 28.04059197 -13 35 C-14.27466109 32.0257908 -13.97681686 30.93782005 -12.8203125 27.8359375 C-12.26085937 26.69382812 -11.70140625 25.55171875 -11.125 24.375 C-10.29355469 22.65410156 -10.29355469 22.65410156 -9.4453125 20.8984375 C-8.63092781 19.26526603 -7.816146 17.632292 -7 16 C-7.98742187 15.95101562 -8.97484375 15.90203125 -9.9921875 15.8515625 C-11.27351563 15.77679688 -12.55484375 15.70203125 -13.875 15.625 C-15.15117188 15.55539063 -16.42734375 15.48578125 -17.7421875 15.4140625 C-21 15 -21 15 -23 13 C-21.7142864 9.14285921 -20.4913606 8.93370484 -16.9375 7.125 C-12.65111769 4.90098629 -8.62418054 2.53412508 -4.65625 -0.21484375 C-3 -1 -3 -1 0 0 Z " fill="#57A836" transform="translate(120,53)"/>
<path d="M0 0 C-11.03454266 5.64266386 -22.09969592 10.65682984 -33.875 14.5625 C-34.87789062 14.89636719 -35.88078125 15.23023437 -36.9140625 15.57421875 C-41.94790617 17.19321171 -46.73607101 18.46480945 -52 19 C-52 18.34 -52 17.68 -52 17 C-51.02160156 16.74605469 -50.04320312 16.49210937 -49.03515625 16.23046875 C-42.5709946 14.53788666 -36.1885301 12.79391958 -29.875 10.59375 C-27.28831346 9.7746326 -24.68670883 9.34444985 -22 9 C-22 8.34 -22 7.68 -22 7 C-21.38253906 6.75765625 -20.76507813 6.5153125 -20.12890625 6.265625 C-14.96321198 4.22136243 -9.90358507 2.07452701 -4.91015625 -0.36328125 C-3 -1 -3 -1 0 0 Z " fill="#4C9F2C" transform="translate(91,93)"/>
<path d="M0 0 C0.66 0 1.32 0 2 0 C2 0.66 2 1.32 2 2 C6.29 2 10.58 2 15 2 C15 21.47 15 40.94 15 61 C14.67 61 14.34 61 14 61 C14 41.86 14 22.72 14 3 C8.51257291 2.98584708 8.51257291 2.98584708 4 5 C3.76636119 6.84891946 3.58696365 8.70488031 3.4375 10.5625 C3.35371094 11.57441406 3.26992187 12.58632813 3.18359375 13.62890625 C3.12300781 14.41136719 3.06242188 15.19382812 3 16 C2.67 16 2.34 16 2 16 C2 11.71 2 7.42 2 3 C1.34 3 0.68 3 0 3 C0 2.01 0 1.02 0 0 Z " fill="#3A8D38" transform="translate(10,42)"/>
<path d="M0 0 C0.99 0.33 1.98 0.66 3 1 C-8.04105595 9.37391828 -18.54158721 17.02866508 -32 21 C-28.5166766 17.04374497 -24.46471733 14.7513985 -19.9375 12.1875 C-13.83360584 8.68437852 -7.90785792 5.06374777 -2.1015625 1.08203125 C-1.40804687 0.72496094 -0.71453125 0.36789063 0 0 Z " fill="#A9E25B" transform="translate(133,44)"/>
<path d="M0 0 C0.99 0.495 0.99 0.495 2 1 C2.33 10.57 2.66 20.14 3 30 C3.99 30 4.98 30 6 30 C6 29.34 6 28.68 6 28 C8.97 27.34 11.94 26.68 15 26 C11 29 11 29 0 34 C0 22.78 0 11.56 0 0 Z " fill="#74A93B" transform="translate(37,112)"/>
<path d="M0 0 C0.33 0 0.66 0 1 0 C1.33 4.95 1.66 9.9 2 15 C2.66 15 3.32 15 4 15 C3.42415568 17.38564077 2.77772405 19.66682784 2 22 C1.87625 22.94875 1.7525 23.8975 1.625 24.875 C0.95269494 28.23652531 0.08983834 30.2909503 -2 33 C-4.1875 33.8125 -4.1875 33.8125 -6 34 C-5.71125 33.21625 -5.4225 32.4325 -5.125 31.625 C-2.96391718 24.66151092 -1.86122578 17.65704807 -1.21875 10.40625 C-0.90226499 6.9249149 -0.44935237 3.46643257 0 0 Z M0 23 C1 25 1 25 1 25 Z M-1 25 C0 27 0 27 0 27 Z " fill="#51944D" transform="translate(187,70)"/>
<path d="M0 0 C0.33 0.99 0.66 1.98 1 3 C-0.29558899 5.17623127 -1.58843084 7.07020925 -3.125 9.0625 C-3.516875 9.60455078 -3.90875 10.14660156 -4.3125 10.70507812 C-6.923561 14.15662771 -8.97741563 15.58596152 -13 17 C-15.04627425 18.68743137 -15.04627425 18.68743137 -16.8125 20.625 C-17.71935547 21.57246094 -17.71935547 21.57246094 -18.64453125 22.5390625 C-19.09183594 23.02117187 -19.53914063 23.50328125 -20 24 C-20.66 23.67 -21.32 23.34 -22 23 C-21.07380859 22.12601563 -21.07380859 22.12601563 -20.12890625 21.234375 C-14.33675791 15.62736383 -9.53127325 9.95471778 -4.91015625 3.37109375 C-3 1 -3 1 0 0 Z " fill="#4EA12B" transform="translate(132,91)"/>
<path d="M0 0 C2 2 2 2 2.1953125 4.1640625 C2.17210937 4.97617187 2.14890625 5.78828125 2.125 6.625 C2.10695312 7.44226562 2.08890625 8.25953125 2.0703125 9.1015625 C2.03550781 10.04128906 2.03550781 10.04128906 2 11 C2.66 11 3.32 11 4 11 C4 16.94 4 22.88 4 29 C2.68 29.33 1.36 29.66 0 30 C-0.39467336 25.93916015 -0.76227989 21.87630863 -1.125 17.8125 C-1.23714844 16.66201172 -1.34929687 15.51152344 -1.46484375 14.32617188 C-1.56152344 13.21435547 -1.65820312 12.10253906 -1.7578125 10.95703125 C-1.8520752 9.93585205 -1.94633789 8.91467285 -2.04345703 7.86254883 C-1.99664943 4.77929556 -1.31872719 2.76399891 0 0 Z M0 3 C1 6 1 6 1 6 Z " fill="#71AC6C" transform="translate(188,55)"/>
<path d="M0 0 C0.33 0 0.66 0 1 0 C1 4.95 1 9.9 1 15 C2.051875 14.54625 3.10375 14.0925 4.1875 13.625 C17.29824504 8.83889757 31.26949957 9.77124631 45 10 C45 10.33 45 10.66 45 11 C43.81148437 11.01417969 42.62296875 11.02835938 41.3984375 11.04296875 C30.57462024 11.31000553 20.57116609 12.66549713 10.07373047 15.36010742 C9.19217285 15.5841626 8.31061523 15.80821777 7.40234375 16.0390625 C6.62366943 16.24740723 5.84499512 16.45575195 5.04272461 16.67041016 C3 17 3 17 0 16 C0 10.72 0 5.44 0 0 Z " fill="#256924" transform="translate(25,145)"/>
<path d="M0 0 C0 3 0 3 -1.875 5.125 C-2.90632922 6.09444947 -3.95023434 7.05054528 -5 8 C-5.78632812 8.72058594 -6.57265625 9.44117188 -7.3828125 10.18359375 C-14.15052211 16.33513875 -14.15052211 16.33513875 -17.75 19.15234375 C-20.07100909 20.80250273 -20.07100909 20.80250273 -21 23 C-27.93 22.505 -27.93 22.505 -35 22 C-35 21.67 -35 21.34 -35 21 C-33.081875 20.938125 -33.081875 20.938125 -31.125 20.875 C-18.87520249 19.45861716 -8.23844711 8.4159361 0 0 Z " fill="#378B1B" transform="translate(112,126)"/>
<path d="M0 0 C3.57619445 1.29244922 6.33672546 2.85452047 9.375 5.125 C13.5599794 8.01312649 15.9932094 8.63916476 21 8 C21.33 8.99 21.66 9.98 22 11 C20.20095222 12.79904778 17.54936549 12.17296543 15.125 12.1875 C13.52011719 12.20876953 13.52011719 12.20876953 11.8828125 12.23046875 C9 12 9 12 6 10 C6.99 10 7.98 10 9 10 C7.0256223 7.88459533 5.46400815 6.21211801 2.8125 5 C1 4 1 4 0.25 1.875 C0.1675 1.25625 0.085 0.6375 0 0 Z " fill="#1F5D1C" transform="translate(111,158)"/>
<path d="M0 0 C0.33 0.99 0.66 1.98 1 3 C5.34464536 2.39174965 9.67551867 1.73832608 14 1 C14 1.66 14 2.32 14 3 C5.45437743 6.08745074 -1.90808586 7.58974578 -11 7 C-8.81482901 4.59424393 -6.74080329 3.20464419 -3.8125 1.8125 C-2.73935547 1.29623047 -2.73935547 1.29623047 -1.64453125 0.76953125 C-1.10183594 0.51558594 -0.55914062 0.26164063 0 0 Z " fill="#7AB53F" transform="translate(56,138)"/>
<path d="M0 0 C-5.46035994 11.2027103 -12.8479192 20.65493176 -21 30 C-21.33 29.01 -21.66 28.02 -22 27 C-21.34 27 -20.68 27 -20 27 C-19.72293213 26.41210693 -19.44586426 25.82421387 -19.16040039 25.21850586 C-18.06343288 23.12127384 -16.87615234 21.37418045 -15.43359375 19.50390625 C-14.94826172 18.86259766 -14.46292969 18.22128906 -13.96289062 17.56054688 C-12.94640381 16.22909231 -11.92556327 14.90095025 -10.90039062 13.57617188 C-8.22564451 10.02527723 -6.59149672 7.50194725 -6 3 C-2.79310345 0 -2.79310345 0 0 0 Z " fill="#90D345" transform="translate(105,84)"/>
<path d="M0 0 C14.20549129 0.87650904 24.73560277 6.21332079 37 13 C33.51557146 14.16147618 33.15452797 13.89427634 30 12.375 C29.19949219 12.00117188 28.39898437 11.62734375 27.57421875 11.2421875 C25.86651728 10.41813732 24.16075865 9.59004801 22.45703125 8.7578125 C15.16816874 5.29102708 7.78851976 3.03524823 0 1 C0 0.67 0 0.34 0 0 Z " fill="#42893F" transform="translate(72,157)"/>
<path d="M0 0 C0.33 0.99 0.66 1.98 1 3 C-3.56825116 9.34479328 -9.58373935 14.5579734 -16 19 C-16.99 19 -17.98 19 -19 19 C-15.25884406 14.41708397 -11.40692278 10.47472033 -6.90234375 6.64453125 C-4.470997 4.5426894 -2.23645947 2.30634883 0 0 Z " fill="#ABE358" transform="translate(90,111)"/>
<path d="M0 0 C1.09505859 0.00902344 2.19011719 0.01804688 3.31835938 0.02734375 C5.98331354 0.05061846 8.64778134 0.08330865 11.3125 0.125 C11.3125 0.455 11.3125 0.785 11.3125 1.125 C10.22710937 1.18558594 9.14171875 1.24617187 8.0234375 1.30859375 C6.57811514 1.39306064 5.13280318 1.47770551 3.6875 1.5625 C2.97464844 1.60181641 2.26179688 1.64113281 1.52734375 1.68164062 C-2.60553682 1.92809681 -6.61019024 2.35970053 -10.6875 3.125 C-10.6875 3.455 -10.6875 3.785 -10.6875 4.125 C-15.9675 4.125 -21.2475 4.125 -26.6875 4.125 C-19.09974923 -0.93350051 -8.79365071 -0.14000914 0 0 Z " fill="#215D1F" transform="translate(38.6875,164.875)"/>
<path d="M0 0 C-0.53919194 4.00281475 -2.48169585 5.85442573 -5.3125 8.625 C-6.48232422 9.78902344 -6.48232422 9.78902344 -7.67578125 10.9765625 C-9.74589467 12.77877889 -11.49273768 13.93283572 -14 15 C-14.66 14.34 -15.32 13.68 -16 13 C-15.49210937 12.56429687 -14.98421875 12.12859375 -14.4609375 11.6796875 C-11.06339026 8.74023652 -7.74466037 5.79798935 -4.625 2.5625 C-2 0 -2 0 0 0 Z " fill="#4B931A" transform="translate(89,110)"/>
<path d="M0 0 C0.66 0 1.32 0 2 0 C0.42840852 3.85754273 -2.01077487 6.14362932 -5 9 C-6.27347265 10.26818853 -7.54423659 11.53910193 -8.8125 12.8125 C-9.875 13.875 -10.9375 14.9375 -12 16 C-12.66 15.34 -13.32 14.68 -14 14 C-11.86997004 9.85204693 -9.97166908 8.30910993 -6 6 C-4.91369221 4.96185363 -3.85193804 3.89757191 -2.8125 2.8125 C-1.884375 1.884375 -0.95625 0.95625 0 0 Z " fill="#459722" transform="translate(120,106)"/>
<path d="M0 0 C0.66 0 1.32 0 2 0 C0.8905928 3.48670834 -0.26337666 6.77484237 -2 10 C-1.01 9.67 -0.02 9.34 1 9 C0 12 0 12 -2 13 C-2.28875 13.639375 -2.5775 14.27875 -2.875 14.9375 C-4.25337262 17.46451648 -5.32800222 18.02836444 -8 19 C-8.99 19 -9.98 19 -11 19 C-10.2575 18.38125 -9.515 17.7625 -8.75 17.125 C-5.62507181 14.03548176 -4.37045964 10.47841831 -2.89453125 6.40234375 C-2.06432264 4.1727442 -1.10361708 2.10513743 0 0 Z " fill="#43873E" transform="translate(183,94)"/>
<path d="M0 0 C-7.78676668 3.53454617 -15.61736325 5.405608 -24 7 C-24 6.34 -24 5.68 -24 5 C-22.98679688 4.73445313 -21.97359375 4.46890625 -20.9296875 4.1953125 C-19.57809823 3.83864311 -18.22653722 3.48186657 -16.875 3.125 C-16.20984375 2.95097656 -15.5446875 2.77695313 -14.859375 2.59765625 C-11.74103745 1.77221396 -8.73377464 0.90370572 -5.6953125 -0.1953125 C-3 -1 -3 -1 0 0 Z " fill="#459526" transform="translate(63,105)"/>
<path d="M0 0 C0.66 0.33 1.32 0.66 2 1 C0.61482883 4.4340702 -0.65444364 5.70022022 -4 7.25 C-4.70125 7.58515625 -5.4025 7.9203125 -6.125 8.265625 C-8 9 -8 9 -10 9 C-10 7.68 -10 6.36 -10 5 C-8.38007835 4.13624104 -6.75388139 3.28424146 -5.125 2.4375 C-4.22007813 1.96183594 -3.31515625 1.48617187 -2.3828125 0.99609375 C-1.20332031 0.50302734 -1.20332031 0.50302734 0 0 Z " fill="#348011" transform="translate(87,132)"/>
<path d="M0 0 C-7.4852274 4.4826184 -14.52556968 8.66222612 -23 11 C-23 10.34 -23 9.68 -23 9 C-20.09399739 7.74335022 -18.20395416 7 -15 7 C-15 6.34 -15 5.68 -15 5 C-13.06891037 3.96709159 -11.129882 2.94901328 -9.1875 1.9375 C-8.10855469 1.36902344 -7.02960938 0.80054688 -5.91796875 0.21484375 C-3 -1 -3 -1 0 0 Z " fill="#81C840" transform="translate(93,129)"/>
<path d="M0 0 C0.33 0.66 0.66 1.32 1 2 C0.06558465 3.27310312 -0.87267111 4.543388 -1.8125 5.8125 C-2.33457031 6.52019531 -2.85664062 7.22789063 -3.39453125 7.95703125 C-4.83128877 9.78531393 -6.31815763 11.39896688 -8 13 C-8.70703125 11.26171875 -8.70703125 11.26171875 -9 9 C-7.63671875 6.89453125 -7.63671875 6.89453125 -5.6875 4.8125 C-5.05199219 4.11769531 -4.41648437 3.42289062 -3.76171875 2.70703125 C-2 1 -2 1 0 0 Z " fill="#509B21" transform="translate(97,99)"/>
<path d="M0 0 C2.70108504 0.090916 5.36930311 0.23740766 8.0625 0.4375 C9.20041992 0.51581055 9.20041992 0.51581055 10.36132812 0.59570312 C12.24121722 0.72575835 14.12065685 0.86228038 16 1 C15.67 2.65 15.34 4.3 15 6 C14.67 5.01 14.34 4.02 14 3 C13.25234375 3.02320312 12.5046875 3.04640625 11.734375 3.0703125 C10.74953125 3.08835937 9.7646875 3.10640625 8.75 3.125 C7.77546875 3.14820312 6.8009375 3.17140625 5.796875 3.1953125 C2.9803502 2.99862781 1.39050964 2.44568916 -1 1 C-0.67 0.67 -0.34 0.34 0 0 Z " fill="#88C841" transform="translate(100,64)"/>
<path d="M0 0 C0 0.33 0 0.66 0 1 C-4.64511035 1.18216119 -7.75779316 0.80293791 -12 -1 C-14.32597511 -1.3813074 -16.65912158 -1.72460254 -19 -2 C-19 -2.33 -19 -2.66 -19 -3 C-12.00457525 -4.90784311 -6.31285518 -2.96317692 0 0 Z " fill="#85BD7F" transform="translate(163,28)"/>
<path d="M0 0 C1.45792884 -0.05399736 2.91642712 -0.09279177 4.375 -0.125 C5.18710938 -0.14820313 5.99921875 -0.17140625 6.8359375 -0.1953125 C9 0 9 0 11 2 C12.155 2.309375 13.31 2.61875 14.5 2.9375 C18 4 18 4 20 7 C13.33333333 5 6.66666667 3 0 1 C0 0.67 0 0.34 0 0 Z " fill="#124010" transform="translate(75,156)"/>
<path d="M0 0 C0 0.66 0 1.32 0 2 C4.95 2 9.9 2 15 2 C13 4 13 4 9.8828125 4.265625 C8.02269531 4.25789062 8.02269531 4.25789062 6.125 4.25 C4.89007813 4.25515625 3.65515625 4.2603125 2.3828125 4.265625 C-0.72188334 4.02183826 -2.41039696 3.63964816 -5 2 C-2 0 -2 0 0 0 Z " fill="#71A83F" transform="translate(73,143)"/>
<path d="M0 0 C0.66 0.33 1.32 0.66 2 1 C-0.19471406 5.51135667 -2.41173718 7.06273348 -7 9 C-7.33 7.68 -7.66 6.36 -8 5 C-6.71475739 4.13619741 -5.42157581 3.28419631 -4.125 2.4375 C-3.04605469 1.72400391 -3.04605469 1.72400391 -1.9453125 0.99609375 C-1.30335937 0.66738281 -0.66140625 0.33867188 0 0 Z " fill="#3B8A17" transform="translate(96,126)"/>
<path d="M0 0 C0.99 0.33 1.98 0.66 3 1 C1.41906946 2.12837409 -0.16484716 3.25256518 -1.75 4.375 C-2.63171875 5.00148437 -3.5134375 5.62796875 -4.421875 6.2734375 C-8.63771712 9.09677419 -8.63771712 9.09677419 -11 10 C-11.99 9.67 -12.98 9.34 -14 9 C-13.0409375 8.443125 -13.0409375 8.443125 -12.0625 7.875 C-10.26710235 6.77577695 -8.49089065 5.64157275 -6.76953125 4.4296875 C-5.97933594 3.87539062 -5.18914063 3.32109375 -4.375 2.75 C-3.61960937 2.20859375 -2.86421875 1.6671875 -2.0859375 1.109375 C-1.39757813 0.74328125 -0.70921875 0.3771875 0 0 Z " fill="#83C53E" transform="translate(64,128)"/>
<path d="M0 0 C3.96 0 7.92 0 12 0 C12 1.65 12 3.3 12 5 C9.50907189 6.24546405 8.58919267 5.7767578 6 5 C6 4.34 6 3.68 6 3 C4.02 2.34 2.04 1.68 0 1 C0 0.67 0 0.34 0 0 Z " fill="#183315" transform="translate(103,167)"/>
<path d="M0 0 C0 0.66 0 1.32 0 2 C-0.99 2.495 -0.99 2.495 -2 3 C0.97 3.495 0.97 3.495 4 4 C4 4.33 4 4.66 4 5 C-0.95 5.33 -5.9 5.66 -11 6 C-7.92832129 2.92832129 -4.55956968 0 0 0 Z " fill="#345F17" transform="translate(48,141)"/>
<path d="M0 0 C0.66 0 1.32 0 2 0 C2 0.66 2 1.32 2 2 C5.96 2 9.92 2 14 2 C14 2.33 14 2.66 14 3 C13.04287109 3.09087891 13.04287109 3.09087891 12.06640625 3.18359375 C10.82697266 3.30927734 10.82697266 3.30927734 9.5625 3.4375 C8.73878906 3.51871094 7.91507813 3.59992187 7.06640625 3.68359375 C5.01337975 3.78930815 5.01337975 3.78930815 4 5 C3.76636119 6.84891946 3.58696365 8.70488031 3.4375 10.5625 C3.35371094 11.57441406 3.26992187 12.58632813 3.18359375 13.62890625 C3.12300781 14.41136719 3.06242188 15.19382812 3 16 C2.67 16 2.34 16 2 16 C2 11.71 2 7.42 2 3 C1.34 3 0.68 3 0 3 C0 2.01 0 1.02 0 0 Z " fill="#499A47" transform="translate(10,42)"/>
<path d="M0 0 C0.33 0 0.66 0 1 0 C1.33 4.95 1.66 9.9 2 15 C2.66 15 3.32 15 4 15 C3.6875 16.9375 3.6875 16.9375 3 19 C2.01 19.33 1.02 19.66 0 20 C-0.19522373 17.41703983 -0.38144403 14.83395921 -0.5625 12.25 C-0.61857422 11.52039063 -0.67464844 10.79078125 -0.73242188 10.0390625 C-0.97709908 6.45046349 -0.99666259 3.44972775 0 0 Z " fill="#589E55" transform="translate(187,70)"/>
<path d="M0 0 C-1.22053859 3.66161578 -2.36782304 4.16270474 -5.5625 6.1875 C-6.38878906 6.71730469 -7.21507813 7.24710938 -8.06640625 7.79296875 C-8.70449219 8.19128906 -9.34257813 8.58960938 -10 9 C-10.66 8.34 -11.32 7.68 -12 7 C-10.56967163 5.82455195 -9.13046758 4.65989738 -7.6875 3.5 C-6.88699219 2.8503125 -6.08648437 2.200625 -5.26171875 1.53125 C-3 0 -3 0 0 0 Z " fill="#3E7F0B" transform="translate(75,124)"/>
<path d="M0 0 C2.01822917 0.26041667 4.03645833 0.52083333 6.0546875 0.78125 C8.00498344 1.0372485 8.00498344 1.0372485 10 1 C10.33 1.99 10.66 2.98 11 4 C10 5 10 5 6.4375 5.0625 C5.303125 5.041875 4.16875 5.02125 3 5 C3 4.34 3 3.68 3 3 C2.01 3 1.02 3 0 3 C0 2.01 0 1.02 0 0 Z " fill="#2A6627" transform="translate(122,165)"/>
<path d="M0 0 C0.5775 0.20625 1.155 0.4125 1.75 0.625 C0.69921875 2.640625 0.69921875 2.640625 -1.25 4.625 C-4.60546875 4.796875 -4.60546875 4.796875 -8.4375 4.375 C-9.70980469 4.24609375 -10.98210937 4.1171875 -12.29296875 3.984375 C-13.26878906 3.86578125 -14.24460937 3.7471875 -15.25 3.625 C-15.25 3.295 -15.25 2.965 -15.25 2.625 C-14.64671875 2.57601562 -14.0434375 2.52703125 -13.421875 2.4765625 C-12.62265625 2.40179688 -11.8234375 2.32703125 -11 2.25 C-9.81664063 2.14558594 -9.81664063 2.14558594 -8.609375 2.0390625 C-5.35143469 1.46730476 -3.28706583 -0.54784431 0 0 Z " fill="#377A1D" transform="translate(92.25,144.375)"/>
<path d="M0 0 C0.33 0.99 0.66 1.98 1 3 C-3.455 6.96 -3.455 6.96 -8 11 C-8.66 10.67 -9.32 10.34 -10 10 C-3.84965831 2.51708428 -3.84965831 2.51708428 0 0 Z " fill="#A3DC53" transform="translate(81,120)"/>
<path d="M0 0 C0.33 0.66 0.66 1.32 1 2 C-0.07674702 4.28258633 -1.19546116 6.4356434 -2.4375 8.625 C-2.77587891 9.23601562 -3.11425781 9.84703125 -3.46289062 10.4765625 C-4.30146192 11.988353 -5.14982577 13.49470399 -6 15 C-6.66 13.68 -7.32 12.36 -8 11 C-5.36 7.37 -2.72 3.74 0 0 Z " fill="#77C851" transform="translate(134,91)"/>
<path d="M0 0 C0.99 0.33 1.98 0.66 3 1 C0.03 3.97 -2.94 6.94 -6 10 C-6.99 9.67 -7.98 9.34 -9 9 C-8.34 9 -7.68 9 -7 9 C-7 8.34 -7 7.68 -7 7 C-6.34 7 -5.68 7 -5 7 C-4.731875 6.401875 -4.46375 5.80375 -4.1875 5.1875 C-3.01506533 3.02775192 -1.80630718 1.64209744 0 0 Z " fill="#91D446" transform="translate(113,108)"/>
<path d="M0 0 C-3.01887244 3.48331435 -5.56909529 4.79157144 -10 6 C-8.20404732 1.26521567 -5.07984355 -1.69328118 0 0 Z " fill="#8FCB46" transform="translate(67,134)"/>
<path d="M0 0 C0.66 0 1.32 0 2 0 C0.58832253 5.26170694 -1.74850232 8.72171358 -5 13 C-5.33 12.01 -5.66 11.02 -6 10 C-5.67 9.34 -5.34 8.68 -5 8 C-4.34 8 -3.68 8 -3 8 C-2.87625 7.4225 -2.7525 6.845 -2.625 6.25 C-1.99351176 3.97664233 -1.11141809 2.0746471 0 0 Z " fill="#97D84C" transform="translate(134,80)"/>
<path d="M0 0 C2.12508244 3.18762365 2.5020163 5.26512223 3 9 C-0.93673644 7.68775452 -3.22719294 6.08089673 -6 3 C-3.525 3.99 -3.525 3.99 -1 5 C-0.67 3.35 -0.34 1.7 0 0 Z " fill="#91D556" transform="translate(150,76)"/>
<path d="M0 0 C1.65 0.99 3.3 1.98 5 3 C3.35 4.32 1.7 5.64 0 7 C-0.66 6.34 -1.32 5.68 -2 5 C-2.66 5 -3.32 5 -4 5 C-4 4.34 -4 3.68 -4 3 C-2.68 2.67 -1.36 2.34 0 2 C0 1.34 0 0.68 0 0 Z " fill="#0A2107" transform="translate(115,163)"/>
<path d="M0 0 C0 0.66 0 1.32 0 2 C-3.87684087 3.19287411 -6.91621923 4 -11 4 C-10.67 3.01 -10.34 2.02 -10 1 C-2.25 0 -2.25 0 0 0 Z " fill="#ACE359" transform="translate(49,111)"/>
<path d="M0 0 C2.8992226 0.46761655 3.86675182 0.86675182 6 3 C5.030625 3.28875 4.06125 3.5775 3.0625 3.875 C-0.10664203 4.64214682 -0.10664203 4.64214682 -1 7 C-1.66 7 -2.32 7 -3 7 C-1.125 1.125 -1.125 1.125 0 0 Z " fill="#56A731" transform="translate(138,77)"/>
<path d="M0 0 C1.85625 0.061875 1.85625 0.061875 3.75 0.125 C3.42 1.115 3.09 2.105 2.75 3.125 C-0.88 2.795 -4.51 2.465 -8.25 2.125 C-4.63863788 0.31931894 -3.705469 -0.12351563 0 0 Z " fill="#23550E" transform="translate(65.25,142.875)"/>
<path d="M0 0 C6.93 0 13.86 0 21 0 C21 0.33 21 0.66 21 1 C14.07 1 7.14 1 0 1 C0 0.67 0 0.34 0 0 Z " fill="#2D6224" transform="translate(43,168)"/>
<path d="M0 0 C-1.04874998 2.62187494 -1.64931313 3.79371361 -4.125 5.25 C-4.74375 5.4975 -5.3625 5.745 -6 6 C-6.66 5.34 -7.32 4.68 -8 4 C-3.375 0 -3.375 0 0 0 Z " fill="#468B14" transform="translate(81,119)"/>
<path d="M0 0 C4.12751449 0.60698743 7.3321148 2.03810791 11 4 C8 5 8 5 4.375 3.6875 C1 2 1 2 0 0 Z " fill="#4F874C" transform="translate(98,166)"/>
<path d="M0 0 C-1.37154504 2.95409701 -2.98863724 5.44008376 -5 8 C-5.33 6.35 -5.66 4.7 -6 3 C-2.25 0 -2.25 0 0 0 Z " fill="#85CF50" transform="translate(105,84)"/>
<path d="M0 0 C0.99 0 1.98 0 3 0 C3 0.99 3 1.98 3 3 C3.99 3.33 4.98 3.66 6 4 C3.6875 4.625 3.6875 4.625 1 5 C0.01 4.34 -0.98 3.68 -2 3 C-1.01 3 -0.02 3 1 3 C0.67 2.01 0.34 1.02 0 0 Z " fill="#175211" transform="translate(119,165)"/>
<path d="M0 0 C0.66 0 1.32 0 2 0 C1.1875 2.4375 1.1875 2.4375 0 5 C-0.99 5.33 -1.98 5.66 -3 6 C-2.42655063 3.13275314 -2.1385485 2.1385485 0 0 Z " fill="#AEE65B" transform="translate(95,105)"/>
<path d="M0 0 C2.31 0 4.62 0 7 0 C7.33 1.32 7.66 2.64 8 4 C5.64828869 3.40138258 3.3140622 2.73075648 1 2 C0.67 1.34 0.34 0.68 0 0 Z " fill="#77B772" transform="translate(158,29)"/>
<path d="M0 0 C3.96 0 7.92 0 12 0 C12 0.33 12 0.66 12 1 C8.04 1 4.08 1 0 1 C0 0.67 0 0.34 0 0 Z " fill="#37692F" transform="translate(66,169)"/>
<path d="M0 0 C3.96 0 7.92 0 12 0 C12 0.33 12 0.66 12 1 C8.04 1 4.08 1 0 1 C0 0.67 0 0.34 0 0 Z " fill="#3A6A33" transform="translate(31,169)"/>
<path d="M0 0 C3.3 0 6.6 0 10 0 C10 0.33 10 0.66 10 1 C6.7 1 3.4 1 0 1 C0 0.67 0 0.34 0 0 Z " fill="#386630" transform="translate(103,173)"/>
<path d="M0 0 C2.31 0 4.62 0 7 0 C7 0.33 7 0.66 7 1 C4.69 1 2.38 1 0 1 C0 0.67 0 0.34 0 0 Z " fill="#2F6427" transform="translate(125,171)"/>
<path d="M0 0 C2.31 0 4.62 0 7 0 C7 0.33 7 0.66 7 1 C4.69 1 2.38 1 0 1 C0 0.67 0 0.34 0 0 Z " fill="#33642E" transform="translate(15,171)"/>
<path d="M0 0 C1.98 0 3.96 0 6 0 C6 0.33 6 0.66 6 1 C4.02 1 2.04 1 0 1 C0 0.67 0 0.34 0 0 Z " fill="#2E6425" transform="translate(96,172)"/>
<path d="M0 0 C1.98 0 3.96 0 6 0 C6 0.33 6 0.66 6 1 C4.02 1 2.04 1 0 1 C0 0.67 0 0.34 0 0 Z " fill="#2F6526" transform="translate(89,171)"/>
<path d="M0 0 C0.33 0 0.66 0 1 0 C1 1.65 1 3.3 1 5 C0.67 5 0.34 5 0 5 C0 3.35 0 1.7 0 0 Z " fill="#75B06D" transform="translate(190,61)"/>
<path d="M0 0 C1.65 0 3.3 0 5 0 C5 0.33 5 0.66 5 1 C3.35 1 1.7 1 0 1 C0 0.67 0 0.34 0 0 Z " fill="#7BBF6C" transform="translate(148,22)"/>
<path d="M0 0 C4 1 4 1 4 1 Z " fill="#3A7632" transform="translate(151,126)"/>
<path d="" fill="#5B9B57" transform="translate(0,0)"/>
<path d="M0 0 C2 1 2 1 2 1 Z " fill="#205C19" transform="translate(122,170)"/>
<path d="M0 0 C2 1 2 1 2 1 Z " fill="#397732" transform="translate(155,125)"/>
<path d="M0 0 C2 1 2 1 2 1 Z " fill="#3A7832" transform="translate(158,124)"/>
<path d="M0 0 C2 1 2 1 2 1 Z " fill="#3B7932" transform="translate(160,123)"/>
<path d="M0 0 C2 1 2 1 2 1 Z " fill="#3B7A33" transform="translate(162,122)"/>
<path d="M0 0 C2 1 2 1 2 1 Z " fill="#3C7B34" transform="translate(164,121)"/>
<path d="M0 0 C2 1 2 1 2 1 Z " fill="#3C7C33" transform="translate(167,119)"/>
<path d="M0 0 C2 1 2 1 2 1 Z " fill="#81BB78" transform="translate(168,30)"/>
<path d="M0 0 C2 1 2 1 2 1 Z " fill="#82BD77" transform="translate(163,27)"/>
<path d="M0 0 C2 1 2 1 2 1 Z " fill="#80BD75" transform="translate(161,26)"/>
<path d="M0 0 C2 1 2 1 2 1 Z " fill="#81BD75" transform="translate(159,25)"/>
<path d="M0 0 C2 1 2 1 2 1 Z " fill="#83BE77" transform="translate(156,24)"/>
<path d="M0 0 C2 1 2 1 2 1 Z " fill="#84BE79" transform="translate(153,23)"/>
<path d="M0 0 C2 1 2 1 2 1 Z " fill="#5DB248" transform="translate(153,20)"/>
<path d="" fill="#3A7A28" transform="translate(0,0)"/>
<path d="" fill="#366E22" transform="translate(0,0)"/>
<path d="" fill="#316921" transform="translate(0,0)"/>
<path d="" fill="#2D641F" transform="translate(0,0)"/>
<path d="" fill="#3F832A" transform="translate(0,0)"/>
<path d="" fill="#22640B" transform="translate(0,0)"/>
<path d="" fill="#448629" transform="translate(0,0)"/>
<path d="" fill="#3E7C26" transform="translate(0,0)"/>
<path d="" fill="#407F27" transform="translate(0,0)"/>
<path d="" fill="#386F22" transform="translate(0,0)"/>
<path d="" fill="#53834A" transform="translate(0,0)"/>
<path d="" fill="#376C31" transform="translate(0,0)"/>
<path d="" fill="#203818" transform="translate(0,0)"/>
<path d="" fill="#3E7538" transform="translate(0,0)"/>
<path d="" fill="#1C3713" transform="translate(0,0)"/>
<path d="" fill="#487E41" transform="translate(0,0)"/>
<path d="" fill="#3C7B34" transform="translate(0,0)"/>
<path d="" fill="#3C7C34" transform="translate(0,0)"/>
<path d="" fill="#3F8138" transform="translate(0,0)"/>
<path d="" fill="#418339" transform="translate(0,0)"/>
<path d="" fill="#41843A" transform="translate(0,0)"/>
<path d="" fill="#52A840" transform="translate(0,0)"/>
<path d="" fill="#468A3F" transform="translate(0,0)"/>
<path d="" fill="#53AD42" transform="translate(0,0)"/>
<path d="" fill="#56AE44" transform="translate(0,0)"/>
<path d="" fill="#54A942" transform="translate(0,0)"/>
<path d="" fill="#7FBA76" transform="translate(0,0)"/>
<path d="" fill="#7DB974" transform="translate(0,0)"/>
<path d="" fill="#7CB873" transform="translate(0,0)"/>
<path d="" fill="#79B76C" transform="translate(0,0)"/>
<path d="" fill="#7BB871" transform="translate(0,0)"/>
<path d="" fill="#7CB972" transform="translate(0,0)"/>
<path d="" fill="#7DBA74" transform="translate(0,0)"/>
<path d="" fill="#80BB77" transform="translate(0,0)"/>
<path d="" fill="#81BC77" transform="translate(0,0)"/>
<path d="" fill="#80BB76" transform="translate(0,0)"/>
<path d="" fill="#5DB147" transform="translate(0,0)"/>
<path d="" fill="#81BB77" transform="translate(0,0)"/>
<path d="" fill="#57A543" transform="translate(0,0)"/>
<path d="" fill="#5FB248" transform="translate(0,0)"/>
<path d="" fill="#62965F" transform="translate(0,0)"/>
<path d="" fill="#6CA66A" transform="translate(0,0)"/>
<path d="" fill="#5CB348" transform="translate(0,0)"/>
<path d="" fill="#5CB348" transform="translate(0,0)"/>
<path d="" fill="#40973D" transform="translate(0,0)"/>
<path d="" fill="#59AC46" transform="translate(0,0)"/>
<path d="" fill="#40973D" transform="translate(0,0)"/>
<path d="" fill="#3D903A" transform="translate(0,0)"/>
<path d="" fill="#4EA13F" transform="translate(0,0)"/>
<path d="" fill="#45983D" transform="translate(0,0)"/>
</svg>
